
<svg xmlns="http://www.w3.org/2000/svg" xmlns:xlink="http://www.w3.org/1999/xlink" viewBox="0 0 32 32" width="32" height="32" fill="none">
  <svg xmlns="http://www.w3.org/2000/svg" height="32" width="32" viewBox="0 0 24 24" fill="#9e9e9e" x="0" y="0" opacity="100%">
    <path fill="none" d="M0 0h24v24H0z"></path>
    <path d="M12 2c-.96 0-1.88.14-2.75.39A4.986 4.986 0 0 0 5 0C2.24 0 0 2.24 0 5c0 1.8.96 3.37 2.39 4.25C2.14 10.12 2 11.04 2 12c0 5.52 4.48 10 10 10s10-4.48 10-10S17.52 2 12 2zm0 18c-4.41 0-8-3.59-8-8 0-.05.01-.1.01-.15 2.6-.98 4.68-2.99 5.74-5.55a9.942 9.942 0 0 0 9.92 3.46c.21.71.33 1.46.33 2.24 0 4.41-3.59 8-8 8z"></path>
    <path d="M9 11.75a1.25 1.25 0 1 0 0 2.5 1.25 1.25 0 1 0 0-2.5zM15 11.75a1.25 1.25 0 1 0 0 2.5 1.25 1.25 0 1 0 0-2.5z"></path>
  </svg>
  <defs>
    <filter id="filter_dshadow_0_0_0_00000014" color-interpolation-filters="sRGB" filterUnits="userSpaceOnUse">
      <feFlood flood-opacity="0" result="bg-fix"></feFlood>
      <feColorMatrix in="SourceAlpha" type="matrix" values="0 0 0 0 0 0 0 0 0 0 0 0 0 0 0 0 0 0 127 0" result="alpha"></feColorMatrix>
      <feOffset dx="0" dy="0"></feOffset>
      <feGaussianBlur stdDeviation="0"></feGaussianBlur>
      <feComposite in2="alpha" operator="out"></feComposite>
      <feColorMatrix type="matrix" values="0 0 0 0 0 0 0 0 0 0 0 0 0 0 0 0 0 0 0.08 0"></feColorMatrix>
      <feBlend mode="normal" in2="bg-fix" result="bg-fix-filter_dshadow_0_0_0_00000014"></feBlend>
      <feBlend in="SourceGraphic" in2="bg-fix-filter_dshadow_0_0_0_00000014" result="shape"></feBlend>
    </filter>
  </defs>
</svg>